PathFileType	4	(X/Y/Z)	RBDS09static.trc
DataRate	CameraRate	NumFrames	NumMarkers	Units	OrigDataRate	OrigDataStartFrame	OrigNumFrames
150.000000	150.000000	4	48	mm	150.000000	18	150
Frame#	Time	L.Ankle			L.Ankle.Medial			L.ASIS			L.GTR			L.Heel.Bottom			L.Heel.Lateral			L.Heel.Top			L.HF			L.Iliac.Crest			L.Knee			L.Knee.Medial			L.MT1			L.MT2			L.MT5			L.PSIS			L.Shank.Bottom.Lateral			L.Shank.Bottom.Medial			L.Shank.Top.Lateral			L.Shank.Top.Medial			L.Thigh.Bottom.Lateral			L.Thigh.Bottom.Medial			L.Thigh.Top.Lateral			L.Thigh.Top.Medial			L.TT			R.Ankle			R.Ankle.Medial			R.ASIS			R.GTR			R.Heel.Bottom			R.Heel.Lateral			R.Heel.Top			R.HF			R.Iliac.Crest			R.Knee			R.Knee.Medial			R.MT1			R.MT2			R.MT5			R.PSIS			R.Shank.Bottom.Lateral			R.Shank.Bottom.Medial			R.Shank.Top.Lateral			R.Shank.Top.Medial			R.Thigh.Bottom.Lateral			R.Thigh.Bottom.Medial			R.Thigh.Top.Lateral			R.Thigh.Top.Medial			R.TT			
		X1	Y1	Z1	X2	Y2	Z2	X3	Y3	Z3	X4	Y4	Z4	X5	Y5	Z5	X6	Y6	Z6	X7	Y7	Z7	X8	Y8	Z8	X9	Y9	Z9	X10	Y10	Z10	X11	Y11	Z11	X12	Y12	Z12	X13	Y13	Z13	X14	Y14	Z14	X15	Y15	Z15	X16	Y16	Z16	X17	Y17	Z17	X18	Y18	Z18	X19	Y19	Z19	X20	Y20	Z20	X21	Y21	Z21	X22	Y22	Z22	X23	Y23	Z23	X24	Y24	Z24	X25	Y25	Z25	X26	Y26	Z26	X27	Y27	Z27	X28	Y28	Z28	X29	Y29	Z29	X30	Y30	Z30	X31	Y31	Z31	X32	Y32	Z32	X33	Y33	Z33	X34	Y34	Z34	X35	Y35	Z35	X36	Y36	Z36	X37	Y37	Z37	X38	Y38	Z38	X39	Y39	Z39	X40	Y40	Z40	X41	Y41	Z41	X42	Y42	Z42	X43	Y43	Z43	X44	Y44	Z44	X45	Y45	Z45	X46	Y46	Z46	X47	Y47	Z47	X48	Y48	Z48	

19	0.12	693.372802734375	98.41007232666016	1047.571899414063	709.8270263671875	109.4922485351563	1133.79541015625	823.1983032226563	983.8136596679688	1113.321044921875	746.9326782226563	902.70458984375	1069.505859375	627.7681274414063	38.78252792358398	1081.5693359375	664.3495483398438	60.73219680786133	1044.084838867188	635.24169921875	88.49961090087891	1084.045166015625	706.6843872070313	459.9020080566406	1051.52734375	758.5703735351563	1047.491088867188	1080.869873046875	707.7020263671875	523.4420776367188	1058.111083984375	700.3564453125	507.4764099121094	1187.3427734375	837.2593994140625	55.08152008056641	1136.166748046875	835.7708129882813	70.00888061523438	1086.082397460938	810.8116455078125	51.41266632080078	1027.9794921875	664.1497802734375	1019.955017089844	1200.617309570313	683.2222290039063	193.4121398925781	1037.374389648438	644.0158081054688	188.2208404541016	1073.211791992188	670.7037963867188	272.48486328125	1031.851928710938	631.4917602539063	267.9915771484375	1067.773071289063	684.978759765625	642.1781005859375	1056.161376953125	638.0194091796875	644.1878051757813	1112.404418945313	689.9922485351563	752.9367065429688	1059.15087890625	649.342529296875	754.0496215820313	1115.6611328125	757.0101318359375	440.4786987304688	1108.0380859375	698.3820190429688	99.50435638427734	1416.462768554688	714.2135620117188	115.5043792724609	1328.992309570313	829.8616943359375	980.166015625	1347.8359375	760.4548950195313	898.6583251953125	1394.903564453125	630.5191040039063	38.06966781616211	1376.595092773438	667.38623046875	60.47803497314453	1418.108642578125	638.588623046875	86.51551055908203	1374.298461914063	721.4193115234375	456.7456359863281	1418.5771484375	775.8368530273438	1049.185791015625	1388.5517578125	725.7784423828125	523.9690551757813	1412.202026367188	699.6691284179688	503.6087951660156	1282.275024414063	835.2477416992188	59.93905639648438	1326.8623046875	843.4825439453125	69.19142150878906	1372.68505859375	812.103271484375	49.23062133789063	1436.749877929688	666.9895629882813	1014.853332519531	1276.551147460938	671.7924194335938	185.3106842041016	1417.555541992188	646.770751953125	188.2848052978516	1372.21826171875	661.4976196289063	269.2650451660156	1425.950317382813	635.9087524414063	267.9470520019531	1379.33203125	724.939697265625	603.3248291015625	1422.695434570313	662.2520141601563	601.8670043945313	1384.3837890625	721.3875122070313	713.9229736328125	1420.90087890625	663.2081298828125	712.0119018554688	1383.021728515625	767.7411499023438	437.5016479492188	1361.485107421875	
20	0.1266666666666667	693.3753662109375	98.41273498535156	1047.569213867188	709.8236083984375	109.4955673217773	1133.791748046875	823.2073364257813	983.8182983398438	1113.307250976563	746.9376831054688	902.7200927734375	1069.485595703125	627.7736206054688	38.7862548828125	1081.540649414063	664.353759765625	60.73598098754883	1044.086059570313	635.2435913085938	88.51268005371094	1084.043212890625	706.7072143554688	459.9093933105469	1051.532348632813	758.5619506835938	1047.486328125	1080.842651367188	707.7073974609375	523.4514770507813	1058.100341796875	700.38623046875	507.4798278808594	1187.3330078125	837.2640380859375	55.07513809204102	1136.161254882813	835.7652587890625	70.00997161865234	1086.07763671875	810.8134155273438	51.41186904907227	1027.975830078125	664.1661376953125	1019.960144042969	1200.607177734375	683.2243041992188	193.4201965332031	1037.37451171875	644.016845703125	188.2309265136719	1073.213745117188	670.7068481445313	272.4933776855469	1031.844604492188	631.4927368164063	267.9904174804688	1067.773559570313	684.9855346679688	642.1929931640625	1056.154174804688	638.0301513671875	644.194580078125	1112.403442382813	689.9974975585938	752.9358520507813	1059.143432617188	649.3535766601563	754.04833984375	1115.664794921875	757.022705078125	440.4832763671875	1108.0380859375	698.3840942382813	99.50739288330078	1416.453002929688	714.2207641601563	115.5054626464844	1328.99169921875	829.8927612304688	980.1561279296875	1347.8212890625	760.5003051757813	898.66650390625	1394.892333984375	630.5186157226563	38.08475112915039	1376.59228515625	667.3960571289063	60.48999404907227	1418.100952148438	638.5789184570313	86.52243804931641	1374.299560546875	721.46240234375	456.7579040527344	1418.71435546875	775.8698120117188	1049.228271484375	1388.493041992188	725.8156127929688	523.9690551757813	1412.1865234375	699.6986083984375	503.6186218261719	1282.26953125	835.24267578125	59.94663619995117	1326.8583984375	843.4883422851563	69.19114685058594	1372.690307617188	812.103759765625	49.23958206176758	1436.748657226563	667.0205688476563	1014.860473632813	1276.548217773438	671.8069458007813	185.3114471435547	1417.541625976563	646.779296875	188.2981872558594	1372.226684570313	661.5189819335938	269.2709350585938	1425.95263671875	635.9251098632813	267.9566345214844	1379.324462890625	724.9846801757813	603.3325805664063	1422.690551757813	662.2897338867188	601.8714599609375	1384.391845703125	721.4276123046875	713.92529296875	1420.8984375	663.2398681640625	712.0161743164063	1383.045166015625	767.7528686523438	437.5054931640625	1361.4736328125	
21	0.1333333333333333	693.3907470703125	98.42121124267578	1047.581176757813	709.8247680664063	109.4943695068359	1133.791748046875	823.2227172851563	983.819580078125	1113.286987304688	746.942138671875	902.7127685546875	1069.471557617188	627.7791137695313	38.79087066650391	1081.549194335938	664.3543090820313	60.73977661132813	1044.086059570313	635.2474365234375	88.50355529785156	1084.054443359375	706.7171630859375	459.9124450683594	1051.525146484375	758.5603637695313	1047.461669921875	1080.830444335938	707.7257690429688	523.4534301757813	1058.098510742188	700.4081420898438	507.4778442382813	1187.324584960938	837.2542114257813	55.07758331298828	1136.1669921875	835.7750244140625	70.0081787109375	1086.075927734375	810.8095092773438	51.41538619995117	1027.976318359375	664.182373046875	1019.95703125	1200.611694335938	683.2335205078125	193.4156036376953	1037.37548828125	644.0294189453125	188.2257537841797	1073.212036132813	670.7200927734375	272.4906311035156	1031.850341796875	631.5020141601563	267.991455078125	1067.776000976563	684.9869995117188	642.1879272460938	1056.15771484375	638.0496826171875	644.192626953125	1112.406982421875	689.993408203125	752.9483642578125	1059.140380859375	649.3711547851563	754.0524291992188	1115.65380859375	757.0305786132813	440.4795532226563	1108.029663085938	698.3878784179688	99.50473785400391	1416.450439453125	714.2132568359375	115.5067138671875	1328.98974609375	829.9219970703125	980.161376953125	1347.80712890625	760.54052734375	898.6689453125	1394.880859375	630.5238647460938	38.07261657714844	1376.591918945313	667.3934936523438	60.47952651977539	1418.1044921875	638.5931396484375	86.52407073974609	1374.29736328125	721.4920654296875	456.7633056640625	1418.70068359375	775.8998413085938	1049.233276367188	1388.492797851563	725.8424072265625	523.9788818359375	1412.164184570313	699.7067260742188	503.6229248046875	1282.272705078125	835.2528076171875	59.94287872314453	1326.858032226563	843.4879760742188	69.188232421875	1372.690185546875	812.1000366210938	49.23487854003906	1436.74755859375	667.0423583984375	1014.856628417969	1276.547607421875	671.8117065429688	185.3180236816406	1417.5419921875	646.78466796875	188.2973937988281	1372.221801757813	661.5328979492188	269.2745056152344	1425.951049804688	635.943115234375	267.9577941894531	1379.321899414063	725.0237426757813	603.33642578125	1422.705444335938	662.3201904296875	601.8765258789063	1384.392944335938	721.4722900390625	713.9287719726563	1420.897827148438	663.2718505859375	712.0293579101563	1383.04638671875	767.7813720703125	437.4950256347656	1361.462158203125	
22	0.14	693.3800659179688	98.41944122314453	1047.57666015625	709.8378295898438	109.4997634887695	1133.7998046875	823.2322387695313	983.8248291015625	1113.266723632813	746.9485473632813	902.7289428710938	1069.462036132813	627.7799682617188	38.78184127807617	1081.549194335938	664.3604736328125	60.73630142211914	1044.083251953125	635.26513671875	88.50270843505859	1084.052612304688	706.7379760742188	459.9181213378906	1051.518798828125	758.5648193359375	1047.452392578125	1080.808471679688	707.7200927734375	523.4498291015625	1058.0986328125	700.4260864257813	507.4798278808594	1187.32470703125	837.2631225585938	55.07631301879883	1136.15625	835.7658081054688	70.00687408447266	1086.075073242188	810.8143920898438	51.41591644287109	1027.976440429688	664.205322265625	1019.948913574219	1200.6123046875	683.2413940429688	193.4217834472656	1037.36669921875	644.0325927734375	188.2309875488281	1073.215209960938	670.7269897460938	272.4955139160156	1031.84716796875	631.5130615234375	267.9989318847656	1067.7705078125	684.9951171875	642.185791015625	1056.138061523438	638.0602416992188	644.191162109375	1112.399291992188	689.997802734375	752.9484252929688	1059.126342773438	649.3843994140625	754.050048828125	1115.651245117188	757.0485229492188	440.4902648925781	1108.020751953125	698.4013061523438	99.51029968261719	1416.456665039063	714.21630859375	115.5036849975586	1328.986206054688	829.9461059570313	980.1608276367188	1347.789184570313	760.57666015625	898.677734375	1394.871826171875	630.5223388671875	38.07738876342773	1376.586669921875	667.3984375	60.49435806274414	1418.099975585938	638.5955200195313	86.51983642578125	1374.294799804688	721.5121459960938	456.7584533691406	1418.705932617188	775.9251708984375	1049.184204101563	1388.518798828125	725.87646484375	523.97412109375	1412.169677734375	699.7179565429688	503.6164855957031	1282.26611328125	835.2579956054688	59.93233489990234	1326.854736328125	843.4932250976563	69.18552398681641	1372.6884765625	812.10595703125	49.23788070678711	1436.740966796875	667.0699462890625	1014.858764648438	1276.547485351563	671.8203125	185.3199615478516	1417.541015625	646.795166015625	188.2991790771484	1372.215209960938	661.5431518554688	269.273681640625	1425.948364257813	635.9556274414063	267.9687194824219	1379.3251953125	725.0538330078125	603.340087890625	1422.70849609375	662.3482055664063	601.8778686523438	1384.408813476563	721.509033203125	713.93212890625	1420.891479492188	663.306396484375	712.02001953125	1383.053344726563	767.7955322265625	437.4973754882813	1361.461059570313	
